<svg xmlns="http://www.w3.org/2000/svg" width="1024" height="1024" viewBox="0 0 1024 1024"><path d="M672 128V96h32v32h32.082C771.49 128 800 156.705 800 192.115v671.77C800 899.528 771.383 928 736.082 928H255.917c-35.408 0-63.918-28.705-63.918-64.115v-671.77c0-35.643 28.617-64.115 63.918-64.115h32.082V96h32v32h96V96h32v32h96V96h32v32zm0 32h-96v32h-32v-32h-96v32h-32v-32h-96v32h-32v-32h-32.001C238.327 160 224 174.045 224 192.098v671.803c0 17.727 14.551 32.098 31.999 32.098h480.003c17.672 0 31.999-14.045 31.999-32.098V192.098c0-17.727-14.551-32.098-31.999-32.098h-32.001v32h-32zM448 384v32h256v-32zm-160-32h96v96h-96zm32 32v32h32v-32zm-32 128h96v96h-96zm32 32v32h32v-32zm128 0v32h256v-32zM288 672h96v96h-96zm32 32v32h32v-32zm128 0v32h256v-32z"/></svg>